<svg xmlns="http://www.w3.org/2000/svg" viewBox="0 0 80 30" preserveAspectRatio="xMidYMid slice" shape-rendering="crispEdges">
<rect x="-0.05" y="-0.05" width="30.10" height="1.10" fill="#00BFFF"/><rect x="29.95" y="-0.05" width="1.10" height="1.10" fill="#FFD700"/><rect x="30.95" y="-0.05" width="7.10" height="1.10" fill="#32CD32"/><rect x="37.95" y="-0.05" width="1.10" height="1.10" fill="#FFD700"/><rect x="38.95" y="-0.05" width="7.10" height="1.10" fill="#00BFFF"/><rect x="45.95" y="-0.05" width="1.10" height="1.10" fill="#FFD700"/><rect x="46.95" y="-0.05" width="3.10" height="1.10" fill="#32CD32"/><rect x="49.95" y="-0.05" width="1.10" height="1.10" fill="#FFD700"/><rect x="50.95" y="-0.05" width="29.10" height="1.10" fill="#00BFFF"/><rect x="-0.05" y="0.95" width="31.10" height="1.10" fill="#00BFFF"/><rect x="30.95" y="0.95" width="1.10" height="1.10" fill="#FFD700"/><rect x="31.95" y="0.95" width="1.10" height="1.10" fill="#32CD32"/><rect x="32.95" y="0.95" width="1.10" height="1.10" fill="#FFD700"/><rect x="33.95" y="0.95" width="10.10" height="1.10" fill="#00BFFF"/><rect x="43.95" y="0.95" width="1.10" height="1.10" fill="#FFD700"/><rect x="44.95" y="0.95" width="5.10" height="1.10" fill="#32CD32"/><rect x="49.95" y="0.95" width="1.10" height="1.10" fill="#FFD700"/><rect x="50.95" y="0.95" width="29.10" height="1.10" fill="#00BFFF"/><rect x="-0.05" y="1.95" width="43.10" height="1.10" fill="#00BFFF"/><rect x="42.95" y="1.95" width="1.10" height="1.10" fill="#FFD700"/><rect x="43.95" y="1.95" width="6.10" height="1.10" fill="#32CD32"/><rect x="49.95" y="1.95" width="1.10" height="1.10" fill="#FFD700"/><rect x="50.95" y="1.95" width="29.10" height="1.10" fill="#00BFFF"/><rect x="-0.05" y="2.95" width="27.10" height="1.10" fill="#00BFFF"/><rect x="26.95" y="2.95" width="3.10" height="1.10" fill="#FFD700"/><rect x="29.95" y="2.95" width="15.10" height="1.10" fill="#00BFFF"/><rect x="44.95" y="2.95" width="5.10" height="1.10" fill="#FFD700"/><rect x="49.95" y="2.95" width="3.10" height="1.10" fill="#00BFFF"/><rect x="52.95" y="2.95" width="1.10" height="1.10" fill="#FFD700"/><rect x="53.95" y="2.95" width="4.10" height="1.10" fill="#32CD32"/><rect x="57.95" y="2.95" width="1.10" height="1.10" fill="#FFD700"/><rect x="58.95" y="2.95" width="15.10" height="1.10" fill="#00BFFF"/><rect x="73.95" y="2.95" width="1.10" height="1.10" fill="#FFD700"/><rect x="74.95" y="2.95" width="2.10" height="1.10" fill="#32CD32"/><rect x="76.95" y="2.95" width="1.10" height="1.10" fill="#FFD700"/><rect x="77.95" y="2.95" width="2.10" height="1.10" fill="#00BFFF"/><rect x="-0.05" y="3.95" width="23.10" height="1.10" fill="#00BFFF"/><rect x="22.95" y="3.95" width="7.10" height="1.10" fill="#32CD32"/><rect x="29.95" y="3.95" width="1.10" height="1.10" fill="#FFD700"/><rect x="30.95" y="3.95" width="14.10" height="1.10" fill="#00BFFF"/><rect x="44.95" y="3.95" width="6.10" height="1.10" fill="#FFD700"/><rect x="50.95" y="3.95" width="1.10" height="1.10" fill="#00BFFF"/><rect x="51.95" y="3.95" width="1.10" height="1.10" fill="#FFD700"/><rect x="52.95" y="3.95" width="2.10" height="1.10" fill="#32CD32"/><rect x="54.95" y="3.95" width="3.10" height="1.10" fill="#228B22"/><rect x="57.95" y="3.95" width="1.10" height="1.10" fill="#32CD32"/><rect x="58.95" y="3.95" width="1.10" height="1.10" fill="#FFD700"/><rect x="59.95" y="3.95" width="11.10" height="1.10" fill="#00BFFF"/><rect x="70.95" y="3.95" width="3.10" height="1.10" fill="#FFD700"/><rect x="73.95" y="3.95" width="4.10" height="1.10" fill="#32CD32"/><rect x="77.95" y="3.95" width="1.10" height="1.10" fill="#FFD700"/><rect x="78.95" y="3.95" width="1.10" height="1.10" fill="#00BFFF"/><rect x="-0.05" y="4.95" width="21.10" height="1.10" fill="#00BFFF"/><rect x="20.95" y="4.95" width="1.10" height="1.10" fill="#FFD700"/><rect x="21.95" y="4.95" width="7.10" height="1.10" fill="#32CD32"/><rect x="28.95" y="4.95" width="5.10" height="1.10" fill="#FFD700"/><rect x="33.95" y="4.95" width="9.10" height="1.10" fill="#00BFFF"/><rect x="42.95" y="4.95" width="1.10" height="1.10" fill="#FFD700"/><rect x="43.95" y="4.95" width="16.10" height="1.10" fill="#32CD32"/><rect x="59.95" y="4.95" width="10.10" height="1.10" fill="#00BFFF"/><rect x="69.95" y="4.95" width="1.10" height="1.10" fill="#FFD700"/><rect x="70.95" y="4.95" width="4.10" height="1.10" fill="#32CD32"/><rect x="74.95" y="4.95" width="1.10" height="1.10" fill="#FFD700"/><rect x="75.95" y="4.95" width="4.10" height="1.10" fill="#00BFFF"/><rect x="-0.05" y="5.95" width="17.10" height="1.10" fill="#00BFFF"/><rect x="16.95" y="5.95" width="1.10" height="1.10" fill="#FFD700"/><rect x="17.95" y="5.95" width="6.10" height="1.10" fill="#32CD32"/><rect x="23.95" y="5.95" width="3.10" height="1.10" fill="#FFD700"/><rect x="26.95" y="5.95" width="15.10" height="1.10" fill="#00BFFF"/><rect x="41.95" y="5.95" width="1.10" height="1.10" fill="#FFD700"/><rect x="42.95" y="5.95" width="2.10" height="1.10" fill="#32CD32"/><rect x="44.95" y="5.95" width="2.10" height="1.10" fill="#228B22"/><rect x="46.95" y="5.95" width="3.10" height="1.10" fill="#32CD32"/><rect x="49.95" y="5.95" width="2.10" height="1.10" fill="#228B22"/><rect x="51.95" y="5.95" width="1.10" height="1.10" fill="#A9A9A9"/><rect x="52.95" y="5.95" width="1.10" height="1.10" fill="#228B22"/><rect x="53.95" y="5.95" width="11.10" height="1.10" fill="#32CD32"/><rect x="64.95" y="5.95" width="1.10" height="1.10" fill="#FFD700"/><rect x="65.95" y="5.95" width="3.10" height="1.10" fill="#00BFFF"/><rect x="68.95" y="5.95" width="1.10" height="1.10" fill="#FFD700"/><rect x="69.95" y="5.95" width="5.10" height="1.10" fill="#32CD32"/><rect x="74.95" y="5.95" width="5.10" height="1.10" fill="#00BFFF"/><rect x="-0.05" y="6.95" width="12.10" height="1.10" fill="#00BFFF"/><rect x="11.95" y="6.95" width="5.10" height="1.10" fill="#32CD32"/><rect x="16.95" y="6.95" width="4.10" height="1.10" fill="#228B22"/><rect x="20.95" y="6.95" width="3.10" height="1.10" fill="#32CD32"/><rect x="23.95" y="6.95" width="4.10" height="1.10" fill="#FFD700"/><rect x="27.95" y="6.95" width="14.10" height="1.10" fill="#00BFFF"/><rect x="41.95" y="6.95" width="1.10" height="1.10" fill="#FFD700"/><rect x="42.95" y="6.95" width="2.10" height="1.10" fill="#32CD32"/><rect x="44.95" y="6.95" width="5.10" height="1.10" fill="#228B22"/><rect x="49.95" y="6.95" width="4.10" height="1.10" fill="#A9A9A9"/><rect x="53.95" y="6.95" width="1.10" height="1.10" fill="#228B22"/><rect x="54.95" y="6.95" width="17.10" height="1.10" fill="#32CD32"/><rect x="71.95" y="6.95" width="1.10" height="1.10" fill="#228B22"/><rect x="72.95" y="6.95" width="2.10" height="1.10" fill="#32CD32"/><rect x="74.95" y="6.95" width="1.10" height="1.10" fill="#FFD700"/><rect x="75.95" y="6.95" width="4.10" height="1.10" fill="#00BFFF"/><rect x="-0.05" y="7.95" width="12.10" height="1.10" fill="#00BFFF"/><rect x="11.95" y="7.95" width="1.10" height="1.10" fill="#32CD32"/><rect x="12.95" y="7.95" width="5.10" height="1.10" fill="#228B22"/><rect x="17.95" y="7.95" width="2.10" height="1.10" fill="#A9A9A9"/><rect x="19.95" y="7.95" width="1.10" height="1.10" fill="#228B22"/><rect x="20.95" y="7.95" width="6.10" height="1.10" fill="#32CD32"/><rect x="26.95" y="7.95" width="1.10" height="1.10" fill="#FFD700"/><rect x="27.95" y="7.95" width="14.10" height="1.10" fill="#00BFFF"/><rect x="41.95" y="7.95" width="1.10" height="1.10" fill="#FFD700"/><rect x="42.95" y="7.95" width="2.10" height="1.10" fill="#32CD32"/><rect x="44.95" y="7.95" width="5.10" height="1.10" fill="#228B22"/><rect x="49.95" y="7.95" width="4.10" height="1.10" fill="#A9A9A9"/><rect x="53.95" y="7.95" width="1.10" height="1.10" fill="#228B22"/><rect x="54.95" y="7.95" width="16.10" height="1.10" fill="#32CD32"/><rect x="70.95" y="7.95" width="2.10" height="1.10" fill="#228B22"/><rect x="72.95" y="7.95" width="2.10" height="1.10" fill="#32CD32"/><rect x="74.95" y="7.95" width="1.10" height="1.10" fill="#FFD700"/><rect x="75.95" y="7.95" width="4.10" height="1.10" fill="#00BFFF"/><rect x="-0.05" y="8.95" width="11.10" height="1.10" fill="#00BFFF"/><rect x="10.95" y="8.95" width="2.10" height="1.10" fill="#32CD32"/><rect x="12.95" y="8.95" width="2.10" height="1.10" fill="#228B22"/><rect x="14.95" y="8.95" width="8.10" height="1.10" fill="#32CD32"/><rect x="22.95" y="8.95" width="2.10" height="1.10" fill="#228B22"/><rect x="24.95" y="8.95" width="2.10" height="1.10" fill="#32CD32"/><rect x="26.95" y="8.95" width="8.10" height="1.10" fill="#00BFFF"/><rect x="34.95" y="8.95" width="1.10" height="1.10" fill="#FFD700"/><rect x="35.95" y="8.95" width="1.10" height="1.10" fill="#32CD32"/><rect x="36.95" y="8.95" width="1.10" height="1.10" fill="#FFD700"/><rect x="37.95" y="8.95" width="4.10" height="1.10" fill="#00BFFF"/><rect x="41.95" y="8.95" width="2.10" height="1.10" fill="#32CD32"/><rect x="43.95" y="8.95" width="1.10" height="1.10" fill="#228B22"/><rect x="44.95" y="8.95" width="5.10" height="1.10" fill="#A9A9A9"/><rect x="49.95" y="8.95" width="8.10" height="1.10" fill="#228B22"/><rect x="57.95" y="8.95" width="6.10" height="1.10" fill="#32CD32"/><rect x="63.95" y="8.95" width="1.10" height="1.10" fill="#FFD700"/><rect x="64.95" y="8.95" width="9.10" height="1.10" fill="#32CD32"/><rect x="73.95" y="8.95" width="6.10" height="1.10" fill="#00BFFF"/><rect x="-0.05" y="9.95" width="4.10" height="1.10" fill="#32CD32"/><rect x="3.95" y="9.95" width="1.10" height="1.10" fill="#FFD700"/><rect x="4.95" y="9.95" width="6.10" height="1.10" fill="#00BFFF"/><rect x="10.95" y="9.95" width="10.10" height="1.10" fill="#32CD32"/><rect x="20.95" y="9.95" width="1.10" height="1.10" fill="#228B22"/><rect x="21.95" y="9.95" width="4.10" height="1.10" fill="#A9A9A9"/><rect x="25.95" y="9.95" width="1.10" height="1.10" fill="#228B22"/><rect x="26.95" y="9.95" width="9.10" height="1.10" fill="#32CD32"/><rect x="35.95" y="9.95" width="3.10" height="1.10" fill="#228B22"/><rect x="38.95" y="9.95" width="3.10" height="1.10" fill="#32CD32"/><rect x="41.95" y="9.95" width="1.10" height="1.10" fill="#228B22"/><rect x="42.95" y="9.95" width="3.10" height="1.10" fill="#A9A9A9"/><rect x="45.95" y="9.95" width="12.10" height="1.10" fill="#228B22"/><rect x="57.95" y="9.95" width="2.10" height="1.10" fill="#32CD32"/><rect x="59.95" y="9.95" width="1.10" height="1.10" fill="#FFD700"/><rect x="60.95" y="9.95" width="6.10" height="1.10" fill="#00BFFF"/><rect x="66.95" y="9.95" width="3.10" height="1.10" fill="#FFD700"/><rect x="69.95" y="9.95" width="10.10" height="1.10" fill="#00BFFF"/><rect x="-0.05" y="10.95" width="4.10" height="1.10" fill="#228B22"/><rect x="3.95" y="10.95" width="2.10" height="1.10" fill="#32CD32"/><rect x="5.95" y="10.95" width="6.10" height="1.10" fill="#00BFFF"/><rect x="11.95" y="10.95" width="1.10" height="1.10" fill="#FFD700"/><rect x="12.95" y="10.95" width="7.10" height="1.10" fill="#32CD32"/><rect x="19.95" y="10.95" width="1.10" height="1.10" fill="#228B22"/><rect x="20.95" y="10.95" width="9.10" height="1.10" fill="#A9A9A9"/><rect x="29.95" y="10.95" width="1.10" height="1.10" fill="#228B22"/><rect x="30.95" y="10.95" width="4.10" height="1.10" fill="#32CD32"/><rect x="34.95" y="10.95" width="3.10" height="1.10" fill="#228B22"/><rect x="37.95" y="10.95" width="6.10" height="1.10" fill="#A9A9A9"/><rect x="43.95" y="10.95" width="3.10" height="1.10" fill="#228B22"/><rect x="46.95" y="10.95" width="3.10" height="1.10" fill="#A9A9A9"/><rect x="49.95" y="10.95" width="5.10" height="1.10" fill="#228B22"/><rect x="54.95" y="10.95" width="3.10" height="1.10" fill="#A9A9A9"/><rect x="57.95" y="10.95" width="1.10" height="1.10" fill="#228B22"/><rect x="58.95" y="10.95" width="2.10" height="1.10" fill="#32CD32"/><rect x="60.95" y="10.95" width="19.10" height="1.10" fill="#00BFFF"/><rect x="-0.05" y="11.95" width="2.10" height="1.10" fill="#32CD32"/><rect x="1.95" y="11.95" width="1.10" height="1.10" fill="#228B22"/><rect x="2.95" y="11.95" width="3.10" height="1.10" fill="#32CD32"/><rect x="5.95" y="11.95" width="6.10" height="1.10" fill="#00BFFF"/><rect x="11.95" y="11.95" width="1.10" height="1.10" fill="#FFD700"/><rect x="12.95" y="11.95" width="7.10" height="1.10" fill="#32CD32"/><rect x="19.95" y="11.95" width="2.10" height="1.10" fill="#228B22"/><rect x="21.95" y="11.95" width="6.10" height="1.10" fill="#A9A9A9"/><rect x="27.95" y="11.95" width="2.10" height="1.10" fill="#228B22"/><rect x="29.95" y="11.95" width="7.10" height="1.10" fill="#32CD32"/><rect x="36.95" y="11.95" width="3.10" height="1.10" fill="#228B22"/><rect x="39.95" y="11.95" width="2.10" height="1.10" fill="#A9A9A9"/><rect x="41.95" y="11.95" width="3.10" height="1.10" fill="#228B22"/><rect x="44.95" y="11.95" width="1.10" height="1.10" fill="#32CD32"/><rect x="45.95" y="11.95" width="5.10" height="1.10" fill="#228B22"/><rect x="50.95" y="11.95" width="2.10" height="1.10" fill="#32CD32"/><rect x="52.95" y="11.95" width="5.10" height="1.10" fill="#228B22"/><rect x="57.95" y="11.95" width="2.10" height="1.10" fill="#32CD32"/><rect x="59.95" y="11.95" width="1.10" height="1.10" fill="#FFD700"/><rect x="60.95" y="11.95" width="19.10" height="1.10" fill="#00BFFF"/><rect x="-0.05" y="12.95" width="3.10" height="1.10" fill="#00BFFF"/><rect x="2.95" y="12.95" width="1.10" height="1.10" fill="#FFD700"/><rect x="3.95" y="12.95" width="1.10" height="1.10" fill="#32CD32"/><rect x="4.95" y="12.95" width="1.10" height="1.10" fill="#FFD700"/><rect x="5.95" y="12.95" width="8.10" height="1.10" fill="#00BFFF"/><rect x="13.95" y="12.95" width="4.10" height="1.10" fill="#FFD700"/><rect x="17.95" y="12.95" width="4.10" height="1.10" fill="#32CD32"/><rect x="21.95" y="12.95" width="1.10" height="1.10" fill="#228B22"/><rect x="22.95" y="12.95" width="3.10" height="1.10" fill="#A9A9A9"/><rect x="25.95" y="12.95" width="1.10" height="1.10" fill="#228B22"/><rect x="26.95" y="12.95" width="20.10" height="1.10" fill="#32CD32"/><rect x="46.95" y="12.95" width="3.10" height="1.10" fill="#FFD700"/><rect x="49.95" y="12.95" width="6.10" height="1.10" fill="#32CD32"/><rect x="55.95" y="12.95" width="2.10" height="1.10" fill="#FFD700"/><rect x="57.95" y="12.95" width="10.10" height="1.10" fill="#00BFFF"/><rect x="67.95" y="12.95" width="1.10" height="1.10" fill="#FFD700"/><rect x="68.95" y="12.95" width="8.10" height="1.10" fill="#32CD32"/><rect x="76.95" y="12.95" width="3.10" height="1.10" fill="#00BFFF"/><rect x="-0.05" y="13.95" width="20.10" height="1.10" fill="#00BFFF"/><rect x="19.95" y="13.95" width="8.10" height="1.10" fill="#FFD700"/><rect x="27.95" y="13.95" width="8.10" height="1.10" fill="#32CD32"/><rect x="35.95" y="13.95" width="4.10" height="1.10" fill="#FFD700"/><rect x="39.95" y="13.95" width="1.10" height="1.10" fill="#32CD32"/><rect x="40.95" y="13.95" width="2.10" height="1.10" fill="#FFD700"/><rect x="42.95" y="13.95" width="4.10" height="1.10" fill="#00BFFF"/><rect x="46.95" y="13.95" width="5.10" height="1.10" fill="#FFD700"/><rect x="51.95" y="13.95" width="15.10" height="1.10" fill="#00BFFF"/><rect x="66.95" y="13.95" width="2.10" height="1.10" fill="#32CD32"/><rect x="68.95" y="13.95" width="1.10" height="1.10" fill="#228B22"/><rect x="69.95" y="13.95" width="4.10" height="1.10" fill="#A9A9A9"/><rect x="73.95" y="13.95" width="1.10" height="1.10" fill="#228B22"/><rect x="74.95" y="13.95" width="5.10" height="1.10" fill="#32CD32"/><rect x="-0.05" y="14.95" width="20.10" height="1.10" fill="#00BFFF"/><rect x="19.95" y="14.95" width="1.10" height="1.10" fill="#FFD700"/><rect x="20.95" y="14.95" width="7.10" height="1.10" fill="#00BFFF"/><rect x="27.95" y="14.95" width="8.10" height="1.10" fill="#32CD32"/><rect x="35.95" y="14.95" width="3.10" height="1.10" fill="#FFD700"/><rect x="38.95" y="14.95" width="3.10" height="1.10" fill="#32CD32"/><rect x="41.95" y="14.95" width="5.10" height="1.10" fill="#00BFFF"/><rect x="46.95" y="14.95" width="3.10" height="1.10" fill="#32CD32"/><rect x="49.95" y="14.95" width="1.10" height="1.10" fill="#FFD700"/><rect x="50.95" y="14.95" width="15.10" height="1.10" fill="#00BFFF"/><rect x="65.95" y="14.95" width="1.10" height="1.10" fill="#FFD700"/><rect x="66.95" y="14.95" width="1.10" height="1.10" fill="#32CD32"/><rect x="67.95" y="14.95" width="1.10" height="1.10" fill="#228B22"/><rect x="68.95" y="14.95" width="6.10" height="1.10" fill="#A9A9A9"/><rect x="74.95" y="14.95" width="5.10" height="1.10" fill="#32CD32"/><rect x="-0.05" y="15.95" width="28.10" height="1.10" fill="#00BFFF"/><rect x="27.95" y="15.95" width="1.10" height="1.10" fill="#FFD700"/><rect x="28.95" y="15.95" width="3.10" height="1.10" fill="#32CD32"/><rect x="31.95" y="15.95" width="1.10" height="1.10" fill="#228B22"/><rect x="32.95" y="15.95" width="10.10" height="1.10" fill="#32CD32"/><rect x="42.95" y="15.95" width="1.10" height="1.10" fill="#FFD700"/><rect x="43.95" y="15.95" width="1.10" height="1.10" fill="#00BFFF"/><rect x="44.95" y="15.95" width="1.10" height="1.10" fill="#FFD700"/><rect x="45.95" y="15.95" width="5.10" height="1.10" fill="#32CD32"/><rect x="50.95" y="15.95" width="1.10" height="1.10" fill="#FFD700"/><rect x="51.95" y="15.95" width="14.10" height="1.10" fill="#00BFFF"/><rect x="65.95" y="15.95" width="3.10" height="1.10" fill="#32CD32"/><rect x="68.95" y="15.95" width="1.10" height="1.10" fill="#228B22"/><rect x="69.95" y="15.95" width="4.10" height="1.10" fill="#A9A9A9"/><rect x="73.95" y="15.95" width="1.10" height="1.10" fill="#228B22"/><rect x="74.95" y="15.95" width="5.10" height="1.10" fill="#32CD32"/><rect x="-0.05" y="16.95" width="11.10" height="1.10" fill="#00BFFF"/><rect x="10.95" y="16.95" width="1.10" height="1.10" fill="#FFD700"/><rect x="11.95" y="16.95" width="5.10" height="1.10" fill="#32CD32"/><rect x="16.95" y="16.95" width="1.10" height="1.10" fill="#FFD700"/><rect x="17.95" y="16.95" width="11.10" height="1.10" fill="#00BFFF"/><rect x="28.95" y="16.95" width="1.10" height="1.10" fill="#FFD700"/><rect x="29.95" y="16.95" width="1.10" height="1.10" fill="#32CD32"/><rect x="30.95" y="16.95" width="3.10" height="1.10" fill="#228B22"/><rect x="33.95" y="16.95" width="4.10" height="1.10" fill="#32CD32"/><rect x="37.95" y="16.95" width="2.10" height="1.10" fill="#228B22"/><rect x="39.95" y="16.95" width="1.10" height="1.10" fill="#A9A9A9"/><rect x="40.95" y="16.95" width="2.10" height="1.10" fill="#228B22"/><rect x="42.95" y="16.95" width="3.10" height="1.10" fill="#32CD32"/><rect x="45.95" y="16.95" width="2.10" height="1.10" fill="#228B22"/><rect x="47.95" y="16.95" width="1.10" height="1.10" fill="#A9A9A9"/><rect x="48.95" y="16.95" width="2.10" height="1.10" fill="#228B22"/><rect x="50.95" y="16.95" width="17.10" height="1.10" fill="#32CD32"/><rect x="67.95" y="16.95" width="6.10" height="1.10" fill="#228B22"/><rect x="73.95" y="16.95" width="6.10" height="1.10" fill="#32CD32"/><rect x="-0.05" y="17.95" width="2.10" height="1.10" fill="#32CD32"/><rect x="1.95" y="17.95" width="1.10" height="1.10" fill="#FFD700"/><rect x="2.95" y="17.95" width="8.10" height="1.10" fill="#00BFFF"/><rect x="10.95" y="17.95" width="2.10" height="1.10" fill="#32CD32"/><rect x="12.95" y="17.95" width="2.10" height="1.10" fill="#228B22"/><rect x="14.95" y="17.95" width="5.10" height="1.10" fill="#32CD32"/><rect x="19.95" y="17.95" width="1.10" height="1.10" fill="#FFD700"/><rect x="20.95" y="17.95" width="9.10" height="1.10" fill="#00BFFF"/><rect x="29.95" y="17.95" width="5.10" height="1.10" fill="#32CD32"/><rect x="34.95" y="17.95" width="2.10" height="1.10" fill="#228B22"/><rect x="36.95" y="17.95" width="9.10" height="1.10" fill="#A9A9A9"/><rect x="45.95" y="17.95" width="1.10" height="1.10" fill="#228B22"/><rect x="46.95" y="17.95" width="3.10" height="1.10" fill="#32CD32"/><rect x="49.95" y="17.95" width="3.10" height="1.10" fill="#228B22"/><rect x="52.95" y="17.95" width="7.10" height="1.10" fill="#32CD32"/><rect x="59.95" y="17.95" width="2.10" height="1.10" fill="#228B22"/><rect x="61.95" y="17.95" width="4.10" height="1.10" fill="#32CD32"/><rect x="65.95" y="17.95" width="3.10" height="1.10" fill="#228B22"/><rect x="68.95" y="17.95" width="5.10" height="1.10" fill="#A9A9A9"/><rect x="73.95" y="17.95" width="1.10" height="1.10" fill="#228B22"/><rect x="74.95" y="17.95" width="4.10" height="1.10" fill="#32CD32"/><rect x="78.95" y="17.95" width="1.10" height="1.10" fill="#228B22"/><rect x="-0.05" y="18.95" width="2.10" height="1.10" fill="#32CD32"/><rect x="1.95" y="18.95" width="1.10" height="1.10" fill="#FFD700"/><rect x="2.95" y="18.95" width="8.10" height="1.10" fill="#00BFFF"/><rect x="10.95" y="18.95" width="2.10" height="1.10" fill="#32CD32"/><rect x="12.95" y="18.95" width="2.10" height="1.10" fill="#228B22"/><rect x="14.95" y="18.95" width="6.10" height="1.10" fill="#32CD32"/><rect x="20.95" y="18.95" width="1.10" height="1.10" fill="#FFD700"/><rect x="21.95" y="18.95" width="8.10" height="1.10" fill="#00BFFF"/><rect x="29.95" y="18.95" width="1.10" height="1.10" fill="#FFD700"/><rect x="30.95" y="18.95" width="4.10" height="1.10" fill="#32CD32"/><rect x="34.95" y="18.95" width="1.10" height="1.10" fill="#228B22"/><rect x="35.95" y="18.95" width="10.10" height="1.10" fill="#A9A9A9"/><rect x="45.95" y="18.95" width="1.10" height="1.10" fill="#228B22"/><rect x="46.95" y="18.95" width="4.10" height="1.10" fill="#32CD32"/><rect x="50.95" y="18.95" width="2.10" height="1.10" fill="#228B22"/><rect x="52.95" y="18.95" width="3.10" height="1.10" fill="#32CD32"/><rect x="55.95" y="18.95" width="1.10" height="1.10" fill="#FFD700"/><rect x="56.95" y="18.95" width="3.10" height="1.10" fill="#32CD32"/><rect x="59.95" y="18.95" width="3.10" height="1.10" fill="#228B22"/><rect x="62.95" y="18.95" width="3.10" height="1.10" fill="#32CD32"/><rect x="65.95" y="18.95" width="2.10" height="1.10" fill="#228B22"/><rect x="67.95" y="18.95" width="6.10" height="1.10" fill="#A9A9A9"/><rect x="73.95" y="18.95" width="1.10" height="1.10" fill="#228B22"/><rect x="74.95" y="18.95" width="4.10" height="1.10" fill="#32CD32"/><rect x="78.95" y="18.95" width="1.10" height="1.10" fill="#228B22"/><rect x="-0.05" y="19.95" width="13.10" height="1.10" fill="#00BFFF"/><rect x="12.95" y="19.95" width="1.10" height="1.10" fill="#FFD700"/><rect x="13.95" y="19.95" width="1.10" height="1.10" fill="#32CD32"/><rect x="14.95" y="19.95" width="5.10" height="1.10" fill="#228B22"/><rect x="19.95" y="19.95" width="2.10" height="1.10" fill="#32CD32"/><rect x="21.95" y="19.95" width="1.10" height="1.10" fill="#FFD700"/><rect x="22.95" y="19.95" width="8.10" height="1.10" fill="#00BFFF"/><rect x="30.95" y="19.95" width="6.10" height="1.10" fill="#32CD32"/><rect x="36.95" y="19.95" width="1.10" height="1.10" fill="#228B22"/><rect x="37.95" y="19.95" width="11.10" height="1.10" fill="#A9A9A9"/><rect x="48.95" y="19.95" width="3.10" height="1.10" fill="#228B22"/><rect x="51.95" y="19.95" width="4.10" height="1.10" fill="#32CD32"/><rect x="55.95" y="19.95" width="1.10" height="1.10" fill="#FFD700"/><rect x="56.95" y="19.95" width="4.10" height="1.10" fill="#32CD32"/><rect x="60.95" y="19.95" width="2.10" height="1.10" fill="#228B22"/><rect x="62.95" y="19.95" width="2.10" height="1.10" fill="#A9A9A9"/><rect x="64.95" y="19.95" width="2.10" height="1.10" fill="#228B22"/><rect x="66.95" y="19.95" width="8.10" height="1.10" fill="#32CD32"/><rect x="74.95" y="19.95" width="3.10" height="1.10" fill="#FFD700"/><rect x="77.95" y="19.95" width="2.10" height="1.10" fill="#32CD32"/><rect x="-0.05" y="20.95" width="14.10" height="1.10" fill="#00BFFF"/><rect x="13.95" y="20.95" width="1.10" height="1.10" fill="#FFD700"/><rect x="14.95" y="20.95" width="10.10" height="1.10" fill="#32CD32"/><rect x="24.95" y="20.95" width="1.10" height="1.10" fill="#FFD700"/><rect x="25.95" y="20.95" width="5.10" height="1.10" fill="#00BFFF"/><rect x="30.95" y="20.95" width="1.10" height="1.10" fill="#FFD700"/><rect x="31.95" y="20.95" width="1.10" height="1.10" fill="#32CD32"/><rect x="32.95" y="20.95" width="3.10" height="1.10" fill="#FFD700"/><rect x="35.95" y="20.95" width="2.10" height="1.10" fill="#32CD32"/><rect x="37.95" y="20.95" width="13.10" height="1.10" fill="#A9A9A9"/><rect x="50.95" y="20.95" width="1.10" height="1.10" fill="#228B22"/><rect x="51.95" y="20.95" width="3.10" height="1.10" fill="#32CD32"/><rect x="54.95" y="20.95" width="1.10" height="1.10" fill="#FFD700"/><rect x="55.95" y="20.95" width="1.10" height="1.10" fill="#00BFFF"/><rect x="56.95" y="20.95" width="1.10" height="1.10" fill="#FFD700"/><rect x="57.95" y="20.95" width="4.10" height="1.10" fill="#32CD32"/><rect x="61.95" y="20.95" width="2.10" height="1.10" fill="#228B22"/><rect x="63.95" y="20.95" width="1.10" height="1.10" fill="#A9A9A9"/><rect x="64.95" y="20.95" width="1.10" height="1.10" fill="#228B22"/><rect x="65.95" y="20.95" width="2.10" height="1.10" fill="#32CD32"/><rect x="67.95" y="20.95" width="10.10" height="1.10" fill="#00BFFF"/><rect x="77.95" y="20.95" width="2.10" height="1.10" fill="#32CD32"/><rect x="-0.05" y="21.95" width="24.10" height="1.10" fill="#00BFFF"/><rect x="23.95" y="21.95" width="5.10" height="1.10" fill="#FFD700"/><rect x="28.95" y="21.95" width="5.10" height="1.10" fill="#00BFFF"/><rect x="33.95" y="21.95" width="1.10" height="1.10" fill="#FFD700"/><rect x="34.95" y="21.95" width="1.10" height="1.10" fill="#32CD32"/><rect x="35.95" y="21.95" width="1.10" height="1.10" fill="#228B22"/><rect x="36.95" y="21.95" width="15.10" height="1.10" fill="#A9A9A9"/><rect x="51.95" y="21.95" width="1.10" height="1.10" fill="#228B22"/><rect x="52.95" y="21.95" width="2.10" height="1.10" fill="#32CD32"/><rect x="54.95" y="21.95" width="1.10" height="1.10" fill="#FFD700"/><rect x="55.95" y="21.95" width="3.10" height="1.10" fill="#00BFFF"/><rect x="58.95" y="21.95" width="1.10" height="1.10" fill="#FFD700"/><rect x="59.95" y="21.95" width="6.10" height="1.10" fill="#32CD32"/><rect x="65.95" y="21.95" width="1.10" height="1.10" fill="#FFD700"/><rect x="66.95" y="21.95" width="11.10" height="1.10" fill="#00BFFF"/><rect x="77.95" y="21.95" width="2.10" height="1.10" fill="#32CD32"/><rect x="-0.05" y="22.95" width="26.10" height="1.10" fill="#00BFFF"/><rect x="25.95" y="22.95" width="2.10" height="1.10" fill="#FFD700"/><rect x="27.95" y="22.95" width="1.10" height="1.10" fill="#32CD32"/><rect x="28.95" y="22.95" width="1.10" height="1.10" fill="#FFD700"/><rect x="29.95" y="22.95" width="4.10" height="1.10" fill="#00BFFF"/><rect x="33.95" y="22.95" width="1.10" height="1.10" fill="#FFD700"/><rect x="34.95" y="22.95" width="1.10" height="1.10" fill="#32CD32"/><rect x="35.95" y="22.95" width="1.10" height="1.10" fill="#228B22"/><rect x="36.95" y="22.95" width="16.10" height="1.10" fill="#A9A9A9"/><rect x="52.95" y="22.95" width="2.10" height="1.10" fill="#32CD32"/><rect x="54.95" y="22.95" width="5.10" height="1.10" fill="#00BFFF"/><rect x="59.95" y="22.95" width="2.10" height="1.10" fill="#FFD700"/><rect x="61.95" y="22.95" width="2.10" height="1.10" fill="#32CD32"/><rect x="63.95" y="22.95" width="2.10" height="1.10" fill="#FFD700"/><rect x="65.95" y="22.95" width="12.10" height="1.10" fill="#00BFFF"/><rect x="77.95" y="22.95" width="2.10" height="1.10" fill="#32CD32"/><rect x="-0.05" y="23.95" width="25.10" height="1.10" fill="#00BFFF"/><rect x="24.95" y="23.95" width="2.10" height="1.10" fill="#FFD700"/><rect x="26.95" y="23.95" width="2.10" height="1.10" fill="#32CD32"/><rect x="28.95" y="23.95" width="1.10" height="1.10" fill="#FFD700"/><rect x="29.95" y="23.95" width="5.10" height="1.10" fill="#00BFFF"/><rect x="34.95" y="23.95" width="1.10" height="1.10" fill="#FFD700"/><rect x="35.95" y="23.95" width="3.10" height="1.10" fill="#32CD32"/><rect x="38.95" y="23.95" width="3.10" height="1.10" fill="#228B22"/><rect x="41.95" y="23.95" width="11.10" height="1.10" fill="#A9A9A9"/><rect x="52.95" y="23.95" width="2.10" height="1.10" fill="#32CD32"/><rect x="54.95" y="23.95" width="16.10" height="1.10" fill="#00BFFF"/><rect x="70.95" y="23.95" width="7.10" height="1.10" fill="#FFD700"/><rect x="77.95" y="23.95" width="2.10" height="1.10" fill="#32CD32"/><rect x="-0.05" y="24.95" width="36.10" height="1.10" fill="#00BFFF"/><rect x="35.95" y="24.95" width="1.10" height="1.10" fill="#FFD700"/><rect x="36.95" y="24.95" width="6.10" height="1.10" fill="#32CD32"/><rect x="42.95" y="24.95" width="2.10" height="1.10" fill="#228B22"/><rect x="44.95" y="24.95" width="7.10" height="1.10" fill="#A9A9A9"/><rect x="51.95" y="24.95" width="1.10" height="1.10" fill="#228B22"/><rect x="52.95" y="24.95" width="2.10" height="1.10" fill="#32CD32"/><rect x="54.95" y="24.95" width="15.10" height="1.10" fill="#00BFFF"/><rect x="69.95" y="24.95" width="6.10" height="1.10" fill="#32CD32"/><rect x="75.95" y="24.95" width="1.10" height="1.10" fill="#FFD700"/><rect x="76.95" y="24.95" width="3.10" height="1.10" fill="#00BFFF"/><rect x="-0.05" y="25.95" width="36.10" height="1.10" fill="#00BFFF"/><rect x="35.95" y="25.95" width="4.10" height="1.10" fill="#32CD32"/><rect x="39.95" y="25.95" width="5.10" height="1.10" fill="#FFD700"/><rect x="44.95" y="25.95" width="1.10" height="1.10" fill="#32CD32"/><rect x="45.95" y="25.95" width="1.10" height="1.10" fill="#228B22"/><rect x="46.95" y="25.95" width="5.10" height="1.10" fill="#A9A9A9"/><rect x="51.95" y="25.95" width="1.10" height="1.10" fill="#228B22"/><rect x="52.95" y="25.95" width="1.10" height="1.10" fill="#32CD32"/><rect x="53.95" y="25.95" width="16.10" height="1.10" fill="#00BFFF"/><rect x="69.95" y="25.95" width="1.10" height="1.10" fill="#FFD700"/><rect x="70.95" y="25.95" width="4.10" height="1.10" fill="#32CD32"/><rect x="74.95" y="25.95" width="5.10" height="1.10" fill="#00BFFF"/><rect x="-0.05" y="26.95" width="36.10" height="1.10" fill="#00BFFF"/><rect x="35.95" y="26.95" width="3.10" height="1.10" fill="#FFD700"/><rect x="38.95" y="26.95" width="5.10" height="1.10" fill="#00BFFF"/><rect x="43.95" y="26.95" width="1.10" height="1.10" fill="#FFD700"/><rect x="44.95" y="26.95" width="2.10" height="1.10" fill="#32CD32"/><rect x="46.95" y="26.95" width="4.10" height="1.10" fill="#228B22"/><rect x="50.95" y="26.95" width="3.10" height="1.10" fill="#32CD32"/><rect x="53.95" y="26.95" width="16.10" height="1.10" fill="#00BFFF"/><rect x="69.95" y="26.95" width="1.10" height="1.10" fill="#FFD700"/><rect x="70.95" y="26.95" width="4.10" height="1.10" fill="#32CD32"/><rect x="74.95" y="26.95" width="1.10" height="1.10" fill="#FFD700"/><rect x="75.95" y="26.95" width="4.10" height="1.10" fill="#00BFFF"/><rect x="-0.05" y="27.95" width="32.10" height="1.10" fill="#00BFFF"/><rect x="31.95" y="27.95" width="2.10" height="1.10" fill="#FFD700"/><rect x="33.95" y="27.95" width="36.10" height="1.10" fill="#00BFFF"/><rect x="69.95" y="27.95" width="1.10" height="1.10" fill="#FFD700"/><rect x="70.95" y="27.95" width="4.10" height="1.10" fill="#32CD32"/><rect x="74.95" y="27.95" width="4.10" height="1.10" fill="#FFD700"/><rect x="78.95" y="27.95" width="1.10" height="1.10" fill="#32CD32"/><rect x="-0.05" y="28.95" width="30.10" height="1.10" fill="#00BFFF"/><rect x="29.95" y="28.95" width="1.10" height="1.10" fill="#FFD700"/><rect x="30.95" y="28.95" width="4.10" height="1.10" fill="#32CD32"/><rect x="34.95" y="28.95" width="27.10" height="1.10" fill="#00BFFF"/><rect x="61.95" y="28.95" width="5.10" height="1.10" fill="#32CD32"/><rect x="66.95" y="28.95" width="1.10" height="1.10" fill="#FFD700"/><rect x="67.95" y="28.95" width="9.10" height="1.10" fill="#00BFFF"/><rect x="76.95" y="28.95" width="3.10" height="1.10" fill="#32CD32"/>
</svg>