<svg xmlns="http://www.w3.org/2000/svg" viewBox="0 0 120 24" preserveAspectRatio="none">
<rect x="0" y="0" width="38" height="1" fill="#00BFFF"/><rect x="38" y="0" width="9" height="1" fill="#32CD32"/><rect x="47" y="0" width="1" height="1" fill="#FFD700"/><rect x="48" y="0" width="10" height="1" fill="#00BFFF"/><rect x="58" y="0" width="1" height="1" fill="#FFD700"/><rect x="59" y="0" width="3" height="1" fill="#32CD32"/><rect x="62" y="0" width="1" height="1" fill="#FFD700"/><rect x="63" y="0" width="57" height="1" fill="#00BFFF"/><rect x="0" y="1" width="38" height="1" fill="#00BFFF"/><rect x="38" y="1" width="1" height="1" fill="#FFD700"/><rect x="39" y="1" width="12" height="1" fill="#32CD32"/><rect x="51" y="1" width="1" height="1" fill="#FFD700"/><rect x="52" y="1" width="6" height="1" fill="#00BFFF"/><rect x="58" y="1" width="4" height="1" fill="#32CD32"/><rect x="62" y="1" width="1" height="1" fill="#FFD700"/><rect x="63" y="1" width="57" height="1" fill="#00BFFF"/><rect x="0" y="2" width="37" height="1" fill="#00BFFF"/><rect x="37" y="2" width="5" height="1" fill="#FFD700"/><rect x="42" y="2" width="11" height="1" fill="#32CD32"/><rect x="53" y="2" width="22" height="1" fill="#00BFFF"/><rect x="75" y="2" width="1" height="1" fill="#FFD700"/><rect x="76" y="2" width="44" height="1" fill="#00BFFF"/><rect x="0" y="3" width="37" height="1" fill="#00BFFF"/><rect x="37" y="3" width="1" height="1" fill="#FFD700"/><rect x="38" y="3" width="8" height="1" fill="#32CD32"/><rect x="46" y="3" width="6" height="1" fill="#228B22"/><rect x="52" y="3" width="2" height="1" fill="#32CD32"/><rect x="54" y="3" width="1" height="1" fill="#FFD700"/><rect x="55" y="3" width="12" height="1" fill="#00BFFF"/><rect x="67" y="3" width="1" height="1" fill="#FFD700"/><rect x="68" y="3" width="11" height="1" fill="#32CD32"/><rect x="79" y="3" width="3" height="1" fill="#FFD700"/><rect x="82" y="3" width="24" height="1" fill="#00BFFF"/><rect x="106" y="3" width="9" height="1" fill="#FFD700"/><rect x="115" y="3" width="5" height="1" fill="#00BFFF"/><rect x="0" y="4" width="36" height="1" fill="#00BFFF"/><rect x="36" y="4" width="1" height="1" fill="#FFD700"/><rect x="37" y="4" width="6" height="1" fill="#32CD32"/><rect x="43" y="4" width="2" height="1" fill="#228B22"/><rect x="45" y="4" width="4" height="1" fill="#A9A9A9"/><rect x="49" y="4" width="5" height="1" fill="#228B22"/><rect x="54" y="4" width="2" height="1" fill="#32CD32"/><rect x="56" y="4" width="1" height="1" fill="#FFD700"/><rect x="57" y="4" width="7" height="1" fill="#00BFFF"/><rect x="64" y="4" width="1" height="1" fill="#FFD700"/><rect x="65" y="4" width="2" height="1" fill="#32CD32"/><rect x="67" y="4" width="2" height="1" fill="#228B22"/><rect x="69" y="4" width="10" height="1" fill="#32CD32"/><rect x="79" y="4" width="2" height="1" fill="#228B22"/><rect x="81" y="4" width="2" height="1" fill="#32CD32"/><rect x="83" y="4" width="1" height="1" fill="#FFD700"/><rect x="84" y="4" width="22" height="1" fill="#00BFFF"/><rect x="106" y="4" width="1" height="1" fill="#FFD700"/><rect x="107" y="4" width="8" height="1" fill="#32CD32"/><rect x="115" y="4" width="1" height="1" fill="#FFD700"/><rect x="116" y="4" width="4" height="1" fill="#00BFFF"/><rect x="0" y="5" width="20" height="1" fill="#00BFFF"/><rect x="20" y="5" width="1" height="1" fill="#FFD700"/><rect x="21" y="5" width="14" height="1" fill="#00BFFF"/><rect x="35" y="5" width="1" height="1" fill="#FFD700"/><rect x="36" y="5" width="6" height="1" fill="#32CD32"/><rect x="42" y="5" width="1" height="1" fill="#228B22"/><rect x="43" y="5" width="11" height="1" fill="#A9A9A9"/><rect x="54" y="5" width="1" height="1" fill="#228B22"/><rect x="55" y="5" width="2" height="1" fill="#32CD32"/><rect x="57" y="5" width="7" height="1" fill="#00BFFF"/><rect x="64" y="5" width="1" height="1" fill="#FFD700"/><rect x="65" y="5" width="2" height="1" fill="#32CD32"/><rect x="67" y="5" width="1" height="1" fill="#228B22"/><rect x="68" y="5" width="7" height="1" fill="#A9A9A9"/><rect x="75" y="5" width="7" height="1" fill="#228B22"/><rect x="82" y="5" width="2" height="1" fill="#32CD32"/><rect x="84" y="5" width="23" height="1" fill="#00BFFF"/><rect x="107" y="5" width="1" height="1" fill="#FFD700"/><rect x="108" y="5" width="6" height="1" fill="#32CD32"/><rect x="114" y="5" width="1" height="1" fill="#FFD700"/><rect x="115" y="5" width="5" height="1" fill="#00BFFF"/><rect x="0" y="6" width="17" height="1" fill="#00BFFF"/><rect x="17" y="6" width="7" height="1" fill="#32CD32"/><rect x="24" y="6" width="1" height="1" fill="#FFD700"/><rect x="25" y="6" width="3" height="1" fill="#00BFFF"/><rect x="28" y="6" width="2" height="1" fill="#FFD700"/><rect x="30" y="6" width="10" height="1" fill="#32CD32"/><rect x="40" y="6" width="2" height="1" fill="#228B22"/><rect x="42" y="6" width="11" height="1" fill="#A9A9A9"/><rect x="53" y="6" width="2" height="1" fill="#228B22"/><rect x="55" y="6" width="4" height="1" fill="#32CD32"/><rect x="59" y="6" width="2" height="1" fill="#FFD700"/><rect x="61" y="6" width="4" height="1" fill="#00BFFF"/><rect x="65" y="6" width="1" height="1" fill="#FFD700"/><rect x="66" y="6" width="1" height="1" fill="#32CD32"/><rect x="67" y="6" width="1" height="1" fill="#228B22"/><rect x="68" y="6" width="12" height="1" fill="#A9A9A9"/><rect x="80" y="6" width="2" height="1" fill="#228B22"/><rect x="82" y="6" width="2" height="1" fill="#32CD32"/><rect x="84" y="6" width="9" height="1" fill="#00BFFF"/><rect x="93" y="6" width="6" height="1" fill="#32CD32"/><rect x="99" y="6" width="2" height="1" fill="#FFD700"/><rect x="101" y="6" width="7" height="1" fill="#00BFFF"/><rect x="108" y="6" width="4" height="1" fill="#32CD32"/><rect x="112" y="6" width="1" height="1" fill="#FFD700"/><rect x="113" y="6" width="7" height="1" fill="#00BFFF"/><rect x="0" y="7" width="16" height="1" fill="#00BFFF"/><rect x="16" y="7" width="1" height="1" fill="#FFD700"/><rect x="17" y="7" width="2" height="1" fill="#32CD32"/><rect x="19" y="7" width="5" height="1" fill="#228B22"/><rect x="24" y="7" width="12" height="1" fill="#32CD32"/><rect x="36" y="7" width="2" height="1" fill="#228B22"/><rect x="38" y="7" width="10" height="1" fill="#A9A9A9"/><rect x="48" y="7" width="5" height="1" fill="#228B22"/><rect x="53" y="7" width="3" height="1" fill="#A9A9A9"/><rect x="56" y="7" width="1" height="1" fill="#228B22"/><rect x="57" y="7" width="8" height="1" fill="#32CD32"/><rect x="65" y="7" width="1" height="1" fill="#228B22"/><rect x="66" y="7" width="9" height="1" fill="#A9A9A9"/><rect x="75" y="7" width="2" height="1" fill="#228B22"/><rect x="77" y="7" width="7" height="1" fill="#32CD32"/><rect x="84" y="7" width="3" height="1" fill="#FFD700"/><rect x="87" y="7" width="9" height="1" fill="#32CD32"/><rect x="96" y="7" width="1" height="1" fill="#228B22"/><rect x="97" y="7" width="6" height="1" fill="#32CD32"/><rect x="103" y="7" width="1" height="1" fill="#FFD700"/><rect x="104" y="7" width="3" height="1" fill="#00BFFF"/><rect x="107" y="7" width="1" height="1" fill="#FFD700"/><rect x="108" y="7" width="5" height="1" fill="#32CD32"/><rect x="113" y="7" width="2" height="1" fill="#FFD700"/><rect x="115" y="7" width="5" height="1" fill="#00BFFF"/><rect x="0" y="8" width="16" height="1" fill="#00BFFF"/><rect x="16" y="8" width="1" height="1" fill="#FFD700"/><rect x="17" y="8" width="2" height="1" fill="#32CD32"/><rect x="19" y="8" width="2" height="1" fill="#228B22"/><rect x="21" y="8" width="5" height="1" fill="#A9A9A9"/><rect x="26" y="8" width="7" height="1" fill="#228B22"/><rect x="33" y="8" width="3" height="1" fill="#32CD32"/><rect x="36" y="8" width="1" height="1" fill="#228B22"/><rect x="37" y="8" width="7" height="1" fill="#A9A9A9"/><rect x="44" y="8" width="1" height="1" fill="#228B22"/><rect x="45" y="8" width="4" height="1" fill="#32CD32"/><rect x="49" y="8" width="4" height="1" fill="#228B22"/><rect x="53" y="8" width="4" height="1" fill="#A9A9A9"/><rect x="57" y="8" width="1" height="1" fill="#228B22"/><rect x="58" y="8" width="2" height="1" fill="#32CD32"/><rect x="60" y="8" width="2" height="1" fill="#FFD700"/><rect x="62" y="8" width="2" height="1" fill="#32CD32"/><rect x="64" y="8" width="1" height="1" fill="#228B22"/><rect x="65" y="8" width="9" height="1" fill="#A9A9A9"/><rect x="74" y="8" width="1" height="1" fill="#228B22"/><rect x="75" y="8" width="20" height="1" fill="#32CD32"/><rect x="95" y="8" width="4" height="1" fill="#228B22"/><rect x="99" y="8" width="20" height="1" fill="#32CD32"/><rect x="119" y="8" width="1" height="1" fill="#FFD700"/><rect x="0" y="9" width="17" height="1" fill="#00BFFF"/><rect x="17" y="9" width="5" height="1" fill="#32CD32"/><rect x="22" y="9" width="4" height="1" fill="#228B22"/><rect x="26" y="9" width="8" height="1" fill="#32CD32"/><rect x="34" y="9" width="3" height="1" fill="#228B22"/><rect x="37" y="9" width="6" height="1" fill="#A9A9A9"/><rect x="43" y="9" width="1" height="1" fill="#228B22"/><rect x="44" y="9" width="10" height="1" fill="#32CD32"/><rect x="54" y="9" width="1" height="1" fill="#228B22"/><rect x="55" y="9" width="5" height="1" fill="#32CD32"/><rect x="60" y="9" width="1" height="1" fill="#FFD700"/><rect x="61" y="9" width="3" height="1" fill="#32CD32"/><rect x="64" y="9" width="1" height="1" fill="#228B22"/><rect x="65" y="9" width="9" height="1" fill="#A9A9A9"/><rect x="74" y="9" width="1" height="1" fill="#228B22"/><rect x="75" y="9" width="14" height="1" fill="#32CD32"/><rect x="89" y="9" width="3" height="1" fill="#228B22"/><rect x="92" y="9" width="13" height="1" fill="#32CD32"/><rect x="105" y="9" width="1" height="1" fill="#FFD700"/><rect x="106" y="9" width="6" height="1" fill="#00BFFF"/><rect x="112" y="9" width="2" height="1" fill="#FFD700"/><rect x="114" y="9" width="5" height="1" fill="#32CD32"/><rect x="119" y="9" width="1" height="1" fill="#FFD700"/><rect x="0" y="10" width="23" height="1" fill="#00BFFF"/><rect x="23" y="10" width="9" height="1" fill="#FFD700"/><rect x="32" y="10" width="2" height="1" fill="#32CD32"/><rect x="34" y="10" width="7" height="1" fill="#228B22"/><rect x="41" y="10" width="5" height="1" fill="#32CD32"/><rect x="46" y="10" width="2" height="1" fill="#FFD700"/><rect x="48" y="10" width="13" height="1" fill="#00BFFF"/><rect x="61" y="10" width="1" height="1" fill="#FFD700"/><rect x="62" y="10" width="2" height="1" fill="#32CD32"/><rect x="64" y="10" width="4" height="1" fill="#228B22"/><rect x="68" y="10" width="10" height="1" fill="#32CD32"/><rect x="78" y="10" width="4" height="1" fill="#FFD700"/><rect x="82" y="10" width="5" height="1" fill="#32CD32"/><rect x="87" y="10" width="1" height="1" fill="#228B22"/><rect x="88" y="10" width="4" height="1" fill="#A9A9A9"/><rect x="92" y="10" width="1" height="1" fill="#228B22"/><rect x="93" y="10" width="9" height="1" fill="#32CD32"/><rect x="102" y="10" width="1" height="1" fill="#FFD700"/><rect x="103" y="10" width="17" height="1" fill="#00BFFF"/><rect x="0" y="11" width="8" height="1" fill="#00BFFF"/><rect x="8" y="11" width="1" height="1" fill="#FFD700"/><rect x="9" y="11" width="4" height="1" fill="#32CD32"/><rect x="13" y="11" width="1" height="1" fill="#FFD700"/><rect x="14" y="11" width="24" height="1" fill="#00BFFF"/><rect x="38" y="11" width="2" height="1" fill="#FFD700"/><rect x="40" y="11" width="37" height="1" fill="#00BFFF"/><rect x="77" y="11" width="7" height="1" fill="#FFD700"/><rect x="84" y="11" width="3" height="1" fill="#32CD32"/><rect x="87" y="11" width="2" height="1" fill="#228B22"/><rect x="89" y="11" width="3" height="1" fill="#A9A9A9"/><rect x="92" y="11" width="1" height="1" fill="#228B22"/><rect x="93" y="11" width="5" height="1" fill="#32CD32"/><rect x="98" y="11" width="3" height="1" fill="#FFD700"/><rect x="101" y="11" width="19" height="1" fill="#00BFFF"/><rect x="0" y="12" width="5" height="1" fill="#00BFFF"/><rect x="5" y="12" width="2" height="1" fill="#FFD700"/><rect x="7" y="12" width="9" height="1" fill="#32CD32"/><rect x="16" y="12" width="63" height="1" fill="#00BFFF"/><rect x="79" y="12" width="6" height="1" fill="#FFD700"/><rect x="85" y="12" width="3" height="1" fill="#32CD32"/><rect x="88" y="12" width="1" height="1" fill="#228B22"/><rect x="89" y="12" width="3" height="1" fill="#A9A9A9"/><rect x="92" y="12" width="2" height="1" fill="#228B22"/><rect x="94" y="12" width="5" height="1" fill="#32CD32"/><rect x="99" y="12" width="2" height="1" fill="#FFD700"/><rect x="101" y="12" width="19" height="1" fill="#00BFFF"/><rect x="0" y="13" width="8" height="1" fill="#00BFFF"/><rect x="8" y="13" width="1" height="1" fill="#FFD700"/><rect x="9" y="13" width="7" height="1" fill="#32CD32"/><rect x="16" y="13" width="58" height="1" fill="#00BFFF"/><rect x="74" y="13" width="2" height="1" fill="#FFD700"/><rect x="76" y="13" width="10" height="1" fill="#32CD32"/><rect x="86" y="13" width="7" height="1" fill="#228B22"/><rect x="93" y="13" width="5" height="1" fill="#32CD32"/><rect x="98" y="13" width="3" height="1" fill="#FFD700"/><rect x="101" y="13" width="19" height="1" fill="#00BFFF"/><rect x="0" y="14" width="9" height="1" fill="#00BFFF"/><rect x="9" y="14" width="8" height="1" fill="#32CD32"/><rect x="17" y="14" width="7" height="1" fill="#00BFFF"/><rect x="24" y="14" width="4" height="1" fill="#32CD32"/><rect x="28" y="14" width="2" height="1" fill="#FFD700"/><rect x="30" y="14" width="1" height="1" fill="#00BFFF"/><rect x="31" y="14" width="2" height="1" fill="#FFD700"/><rect x="33" y="14" width="3" height="1" fill="#32CD32"/><rect x="36" y="14" width="1" height="1" fill="#FFD700"/><rect x="37" y="14" width="11" height="1" fill="#00BFFF"/><rect x="48" y="14" width="2" height="1" fill="#FFD700"/><rect x="50" y="14" width="2" height="1" fill="#32CD32"/><rect x="52" y="14" width="3" height="1" fill="#FFD700"/><rect x="55" y="14" width="9" height="1" fill="#00BFFF"/><rect x="64" y="14" width="1" height="1" fill="#FFD700"/><rect x="65" y="14" width="11" height="1" fill="#32CD32"/><rect x="76" y="14" width="6" height="1" fill="#228B22"/><rect x="82" y="14" width="6" height="1" fill="#A9A9A9"/><rect x="88" y="14" width="3" height="1" fill="#228B22"/><rect x="91" y="14" width="4" height="1" fill="#32CD32"/><rect x="95" y="14" width="7" height="1" fill="#FFD700"/><rect x="102" y="14" width="6" height="1" fill="#00BFFF"/><rect x="108" y="14" width="4" height="1" fill="#32CD32"/><rect x="112" y="14" width="8" height="1" fill="#00BFFF"/><rect x="0" y="15" width="6" height="1" fill="#00BFFF"/><rect x="6" y="15" width="1" height="1" fill="#FFD700"/><rect x="7" y="15" width="3" height="1" fill="#32CD32"/><rect x="10" y="15" width="5" height="1" fill="#228B22"/><rect x="15" y="15" width="4" height="1" fill="#32CD32"/><rect x="19" y="15" width="2" height="1" fill="#FFD700"/><rect x="21" y="15" width="14" height="1" fill="#32CD32"/><rect x="35" y="15" width="1" height="1" fill="#FFD700"/><rect x="36" y="15" width="8" height="1" fill="#00BFFF"/><rect x="44" y="15" width="1" height="1" fill="#FFD700"/><rect x="45" y="15" width="3" height="1" fill="#32CD32"/><rect x="48" y="15" width="5" height="1" fill="#228B22"/><rect x="53" y="15" width="3" height="1" fill="#32CD32"/><rect x="56" y="15" width="1" height="1" fill="#FFD700"/><rect x="57" y="15" width="7" height="1" fill="#00BFFF"/><rect x="64" y="15" width="1" height="1" fill="#FFD700"/><rect x="65" y="15" width="3" height="1" fill="#32CD32"/><rect x="68" y="15" width="2" height="1" fill="#FFD700"/><rect x="70" y="15" width="1" height="1" fill="#00BFFF"/><rect x="71" y="15" width="1" height="1" fill="#FFD700"/><rect x="72" y="15" width="2" height="1" fill="#32CD32"/><rect x="74" y="15" width="2" height="1" fill="#228B22"/><rect x="76" y="15" width="13" height="1" fill="#A9A9A9"/><rect x="89" y="15" width="5" height="1" fill="#228B22"/><rect x="94" y="15" width="4" height="1" fill="#32CD32"/><rect x="98" y="15" width="2" height="1" fill="#FFD700"/><rect x="100" y="15" width="2" height="1" fill="#00BFFF"/><rect x="102" y="15" width="2" height="1" fill="#FFD700"/><rect x="104" y="15" width="5" height="1" fill="#32CD32"/><rect x="109" y="15" width="3" height="1" fill="#FFD700"/><rect x="112" y="15" width="8" height="1" fill="#00BFFF"/><rect x="0" y="16" width="5" height="1" fill="#00BFFF"/><rect x="5" y="16" width="3" height="1" fill="#32CD32"/><rect x="8" y="16" width="2" height="1" fill="#228B22"/><rect x="10" y="16" width="2" height="1" fill="#A9A9A9"/><rect x="12" y="16" width="3" height="1" fill="#228B22"/><rect x="15" y="16" width="19" height="1" fill="#32CD32"/><rect x="34" y="16" width="10" height="1" fill="#00BFFF"/><rect x="44" y="16" width="2" height="1" fill="#32CD32"/><rect x="46" y="16" width="1" height="1" fill="#228B22"/><rect x="47" y="16" width="6" height="1" fill="#A9A9A9"/><rect x="53" y="16" width="1" height="1" fill="#228B22"/><rect x="54" y="16" width="2" height="1" fill="#32CD32"/><rect x="56" y="16" width="1" height="1" fill="#FFD700"/><rect x="57" y="16" width="7" height="1" fill="#00BFFF"/><rect x="64" y="16" width="3" height="1" fill="#32CD32"/><rect x="67" y="16" width="1" height="1" fill="#FFD700"/><rect x="68" y="16" width="5" height="1" fill="#00BFFF"/><rect x="73" y="16" width="1" height="1" fill="#32CD32"/><rect x="74" y="16" width="1" height="1" fill="#228B22"/><rect x="75" y="16" width="17" height="1" fill="#A9A9A9"/><rect x="92" y="16" width="4" height="1" fill="#228B22"/><rect x="96" y="16" width="2" height="1" fill="#32CD32"/><rect x="98" y="16" width="1" height="1" fill="#FFD700"/><rect x="99" y="16" width="4" height="1" fill="#00BFFF"/><rect x="103" y="16" width="5" height="1" fill="#32CD32"/><rect x="108" y="16" width="5" height="1" fill="#00BFFF"/><rect x="113" y="16" width="1" height="1" fill="#FFD700"/><rect x="114" y="16" width="3" height="1" fill="#32CD32"/><rect x="117" y="16" width="1" height="1" fill="#FFD700"/><rect x="118" y="16" width="2" height="1" fill="#00BFFF"/><rect x="0" y="17" width="7" height="1" fill="#00BFFF"/><rect x="7" y="17" width="1" height="1" fill="#FFD700"/><rect x="8" y="17" width="10" height="1" fill="#32CD32"/><rect x="18" y="17" width="4" height="1" fill="#00BFFF"/><rect x="22" y="17" width="1" height="1" fill="#FFD700"/><rect x="23" y="17" width="12" height="1" fill="#32CD32"/><rect x="35" y="17" width="1" height="1" fill="#FFD700"/><rect x="36" y="17" width="9" height="1" fill="#00BFFF"/><rect x="45" y="17" width="2" height="1" fill="#32CD32"/><rect x="47" y="17" width="2" height="1" fill="#228B22"/><rect x="49" y="17" width="4" height="1" fill="#A9A9A9"/><rect x="53" y="17" width="2" height="1" fill="#228B22"/><rect x="55" y="17" width="4" height="1" fill="#32CD32"/><rect x="59" y="17" width="8" height="1" fill="#FFD700"/><rect x="67" y="17" width="9" height="1" fill="#32CD32"/><rect x="76" y="17" width="1" height="1" fill="#228B22"/><rect x="77" y="17" width="8" height="1" fill="#A9A9A9"/><rect x="85" y="17" width="8" height="1" fill="#228B22"/><rect x="93" y="17" width="4" height="1" fill="#32CD32"/><rect x="97" y="17" width="1" height="1" fill="#FFD700"/><rect x="98" y="17" width="6" height="1" fill="#00BFFF"/><rect x="104" y="17" width="5" height="1" fill="#32CD32"/><rect x="109" y="17" width="3" height="1" fill="#FFD700"/><rect x="112" y="17" width="8" height="1" fill="#00BFFF"/><rect x="0" y="18" width="25" height="1" fill="#00BFFF"/><rect x="25" y="18" width="3" height="1" fill="#32CD32"/><rect x="28" y="18" width="5" height="1" fill="#FFD700"/><rect x="33" y="18" width="2" height="1" fill="#32CD32"/><rect x="35" y="18" width="2" height="1" fill="#FFD700"/><rect x="37" y="18" width="10" height="1" fill="#00BFFF"/><rect x="47" y="18" width="2" height="1" fill="#32CD32"/><rect x="49" y="18" width="8" height="1" fill="#228B22"/><rect x="57" y="18" width="4" height="1" fill="#A9A9A9"/><rect x="61" y="18" width="2" height="1" fill="#228B22"/><rect x="63" y="18" width="5" height="1" fill="#32CD32"/><rect x="68" y="18" width="1" height="1" fill="#228B22"/><rect x="69" y="18" width="3" height="1" fill="#A9A9A9"/><rect x="72" y="18" width="1" height="1" fill="#228B22"/><rect x="73" y="18" width="6" height="1" fill="#32CD32"/><rect x="79" y="18" width="2" height="1" fill="#228B22"/><rect x="81" y="18" width="8" height="1" fill="#32CD32"/><rect x="89" y="18" width="2" height="1" fill="#228B22"/><rect x="91" y="18" width="3" height="1" fill="#32CD32"/><rect x="94" y="18" width="1" height="1" fill="#FFD700"/><rect x="95" y="18" width="11" height="1" fill="#00BFFF"/><rect x="106" y="18" width="1" height="1" fill="#FFD700"/><rect x="107" y="18" width="6" height="1" fill="#32CD32"/><rect x="113" y="18" width="7" height="1" fill="#00BFFF"/><rect x="0" y="19" width="48" height="1" fill="#00BFFF"/><rect x="48" y="19" width="2" height="1" fill="#FFD700"/><rect x="50" y="19" width="4" height="1" fill="#32CD32"/><rect x="54" y="19" width="2" height="1" fill="#228B22"/><rect x="56" y="19" width="17" height="1" fill="#A9A9A9"/><rect x="73" y="19" width="2" height="1" fill="#228B22"/><rect x="75" y="19" width="3" height="1" fill="#32CD32"/><rect x="78" y="19" width="2" height="1" fill="#FFD700"/><rect x="80" y="19" width="6" height="1" fill="#00BFFF"/><rect x="86" y="19" width="1" height="1" fill="#FFD700"/><rect x="87" y="19" width="5" height="1" fill="#32CD32"/><rect x="92" y="19" width="1" height="1" fill="#FFD700"/><rect x="93" y="19" width="14" height="1" fill="#00BFFF"/><rect x="107" y="19" width="7" height="1" fill="#32CD32"/><rect x="114" y="19" width="1" height="1" fill="#FFD700"/><rect x="115" y="19" width="5" height="1" fill="#00BFFF"/><rect x="0" y="20" width="53" height="1" fill="#00BFFF"/><rect x="53" y="20" width="1" height="1" fill="#FFD700"/><rect x="54" y="20" width="1" height="1" fill="#32CD32"/><rect x="55" y="20" width="1" height="1" fill="#228B22"/><rect x="56" y="20" width="13" height="1" fill="#A9A9A9"/><rect x="69" y="20" width="4" height="1" fill="#228B22"/><rect x="73" y="20" width="1" height="1" fill="#A9A9A9"/><rect x="74" y="20" width="2" height="1" fill="#228B22"/><rect x="76" y="20" width="2" height="1" fill="#32CD32"/><rect x="78" y="20" width="29" height="1" fill="#00BFFF"/><rect x="107" y="20" width="1" height="1" fill="#FFD700"/><rect x="108" y="20" width="2" height="1" fill="#32CD32"/><rect x="110" y="20" width="1" height="1" fill="#228B22"/><rect x="111" y="20" width="5" height="1" fill="#32CD32"/><rect x="116" y="20" width="4" height="1" fill="#00BFFF"/><rect x="0" y="21" width="53" height="1" fill="#00BFFF"/><rect x="53" y="21" width="3" height="1" fill="#32CD32"/><rect x="56" y="21" width="2" height="1" fill="#228B22"/><rect x="58" y="21" width="5" height="1" fill="#A9A9A9"/><rect x="63" y="21" width="5" height="1" fill="#228B22"/><rect x="68" y="21" width="8" height="1" fill="#32CD32"/><rect x="76" y="21" width="1" height="1" fill="#FFD700"/><rect x="77" y="21" width="33" height="1" fill="#00BFFF"/><rect x="110" y="21" width="5" height="1" fill="#FFD700"/><rect x="115" y="21" width="5" height="1" fill="#00BFFF"/><rect x="0" y="22" width="47" height="1" fill="#00BFFF"/><rect x="47" y="22" width="1" height="1" fill="#FFD700"/><rect x="48" y="22" width="15" height="1" fill="#32CD32"/><rect x="63" y="22" width="1" height="1" fill="#FFD700"/><rect x="64" y="22" width="14" height="1" fill="#00BFFF"/><rect x="78" y="22" width="6" height="1" fill="#32CD32"/><rect x="84" y="22" width="3" height="1" fill="#FFD700"/><rect x="87" y="22" width="33" height="1" fill="#00BFFF"/><rect x="0" y="23" width="45" height="1" fill="#00BFFF"/><rect x="45" y="23" width="1" height="1" fill="#FFD700"/><rect x="46" y="23" width="4" height="1" fill="#32CD32"/><rect x="50" y="23" width="1" height="1" fill="#228B22"/><rect x="51" y="23" width="3" height="1" fill="#32CD32"/><rect x="54" y="23" width="1" height="1" fill="#FFD700"/><rect x="55" y="23" width="22" height="1" fill="#00BFFF"/><rect x="77" y="23" width="1" height="1" fill="#FFD700"/><rect x="78" y="23" width="7" height="1" fill="#32CD32"/><rect x="85" y="23" width="1" height="1" fill="#FFD700"/><rect x="86" y="23" width="34" height="1" fill="#00BFFF"/>
</svg>